<svg xmlns="http://www.w3.org/2000/svg" viewBox="0 0 512 512">
  <title>شجره‌نامه</title>
  <defs>
    <linearGradient id="pd-bg" x1="0" y1="0" x2="1" y2="1">
      <stop offset="0" stop-color="#94d6c7"/>
      <stop offset=".55" stop-color="#55a397"/>
      <stop offset="1" stop-color="#357f78"/>
    </linearGradient>
    <radialGradient id="pd-glow" cx=".24" cy=".14" r=".85">
      <stop offset="0" stop-color="#fff" stop-opacity=".55"/>
      <stop offset=".5" stop-color="#fff" stop-opacity="0"/>
    </radialGradient>
    <radialGradient id="pd-halo">
      <stop offset=".45" stop-color="#fff" stop-opacity=".3"/>
      <stop offset="1" stop-color="#fff" stop-opacity="0"/>
    </radialGradient>
    <linearGradient id="pd-heart" x1="0" y1="0" x2="0" y2="1">
      <stop offset="0" stop-color="#f8bfa8"/>
      <stop offset="1" stop-color="#e7837a"/>
    </linearGradient>
  </defs>
  <rect width="512" height="512" rx="120" fill="url(#pd-bg)"/>
  <rect width="512" height="512" rx="120" fill="url(#pd-glow)"/>
  <circle cx="256" cy="220" r="190" fill="url(#pd-halo)"/>
  <g fill="#fff">
    <circle cx="256" cy="206" r="98"/>
    <circle cx="176" cy="246" r="62"/>
    <circle cx="336" cy="246" r="62"/>
  </g>
  <path d="M256 300v100" stroke="#fff" stroke-width="30" stroke-linecap="round"/>
  <path d="M256 398c-20 0-44 8-66 22M256 398c20 0 44 8 66 22" fill="none" stroke="#fff" stroke-width="18" stroke-linecap="round" opacity=".8"/>
  <path d="M256 258c-36-22-54-41-54-62a27 27 0 0 1 54-9 27 27 0 0 1 54 9c0 21-18 40-54 62z" fill="url(#pd-heart)"/>
</svg>
